<svg width="147" height="34" viewBox="0 0 147 34" fill="none" xmlns="http://www.w3.org/2000/svg">
<path d="M142.696 4.79915L142.059 4.02818V4.02819L142.696 4.79915ZM146.556 2.52737C146.608 1.97757 146.205 1.48942 145.655 1.43706L136.696 0.583776C136.146 0.531414 135.658 0.934665 135.606 1.48446C135.553 2.03426 135.957 2.5224 136.506 2.57477L144.47 3.33324L143.712 11.2972C143.659 11.847 144.063 12.3351 144.613 12.3875C145.162 12.4399 145.65 12.0366 145.703 11.4868L146.556 2.52737ZM143.333 5.57011L146.197 3.20352L144.924 1.66159L142.059 4.02818L143.333 5.57011ZM0.367189 15.7892C45.3267 43.2139 102.731 39.1107 143.333 5.57011L142.059 4.02819C102.115 37.0256 45.6401 41.0623 1.40869 14.0818L0.367189 15.7892Z" fill="#E07B98"/>
</svg>
