<svg width="15" height="16" viewBox="0 0 15 16" fill="none" xmlns="http://www.w3.org/2000/svg">
<path id="Vector" d="M14.9732 4.40941C14.9732 9.1751 8.65425 15.4878 3.8948 15.4878C2.85308 15.4878 1.87998 15.0948 1.16263 14.3774L0.538853 13.6601C-0.184734 12.9365 -0.184734 11.7139 0.570042 10.9591C0.588756 10.9404 2.09207 9.7864 2.09207 9.7864C2.84061 9.07529 4.01955 9.07529 4.76185 9.7864L5.67258 10.5162C7.66868 9.66789 9.08466 8.24566 9.99538 6.18095L9.2718 5.27022C8.55445 4.52792 8.55445 3.34274 9.2718 2.60044C9.2718 2.60044 10.4258 1.09712 10.4445 1.07841C11.1993 0.323635 12.4219 0.323635 13.1767 1.07841L13.8316 1.64605C14.5802 2.38835 14.9732 3.36145 14.9732 4.40317V4.40941Z" fill="#452D43" fill-opacity="0.5"/>
</svg>
