<svg width="15" height="16" viewBox="0 0 15 16" fill="none" xmlns="http://www.w3.org/2000/svg">
<path id="Vector" d="M5.4375 11.7429H1.875C0.941875 11.7429 0 11.0355 0 9.45608V6.31222C0.013142 4.87888 0.550892 3.49978 1.51199 2.43463C2.47308 1.36948 3.7912 0.691779 5.21812 0.529139C6.02335 0.470799 6.83172 0.586141 7.58832 0.867327C8.34491 1.14851 9.03198 1.58895 9.60286 2.15872C10.1737 2.72848 10.615 3.41422 10.8968 4.16934C11.1785 4.92446 11.2941 5.73125 11.2356 6.53491C11.0725 7.95964 10.3929 9.27562 9.32487 10.2349C8.25688 11.1942 6.87425 11.7305 5.4375 11.7429ZM12.5 6.17873H12.4925C12.4925 6.32657 12.4925 6.4744 12.485 6.62286C12.2437 9.99627 9.15438 12.8519 5.6775 12.9786V12.9879C6.11538 13.7459 6.74523 14.3756 7.50389 14.814C8.26256 15.2524 9.12337 15.484 10 15.4856H13.125C13.6223 15.4856 14.0992 15.2884 14.4508 14.9374C14.8025 14.5865 15 14.1105 15 13.6142V10.4953C14.9991 9.62019 14.7676 8.76071 14.3288 8.00307C13.89 7.24543 13.2593 6.61628 12.5 6.17873Z" fill="#452D43" fill-opacity="0.5"/>
</svg>
