<svg width="40" height="40" viewBox="0 0 40 40" fill="none" xmlns="http://www.w3.org/2000/svg">
<g clip-path="url(#clip0_17_41)">
<path d="M28.0308 14.1703L17.8876 22.4612L17.4103 22.8522C17.3055 22.9353 17.237 23.0559 17.2194 23.1885L17.1126 24.0703L16.8194 26.5476C16.8221 26.5777 16.8128 26.6077 16.7934 26.631C16.774 26.6542 16.7461 26.6688 16.716 26.6715C16.6859 26.6742 16.6559 26.6648 16.6327 26.6454C16.6094 26.626 16.5949 26.5982 16.5921 26.5681L15.7671 24.0908L14.9149 21.5567C14.8785 21.4431 14.8832 21.3204 14.928 21.2099C14.9729 21.0995 15.0551 21.0082 15.1603 20.9522L25.7149 14.9022L27.7012 13.7658C27.9899 13.5976 28.2853 13.9612 28.0308 14.1703Z" fill="#E07B98"/>
<path d="M20 0C16.0444 0 12.1776 1.17298 8.8886 3.37061C5.59962 5.56824 3.03617 8.69181 1.52242 12.3463C0.00866576 16.0009 -0.387401 20.0222 0.384303 23.9018C1.15601 27.7814 3.06082 31.3451 5.85787 34.1421C8.65492 36.9392 12.2186 38.844 16.0982 39.6157C19.9778 40.3874 23.9992 39.9913 27.6537 38.4776C31.3082 36.9638 34.4318 34.4004 36.6294 31.1114C38.827 27.8224 40 23.9556 40 20C40 14.6957 37.8929 9.60859 34.1421 5.85786C30.3914 2.10714 25.3043 0 20 0V0ZM32.475 11.5773L28.5705 28.8295C28.3864 29.6386 27.3591 30.0045 26.6386 29.5114L20.7432 25.5114L17.7409 28.35C17.6185 28.4649 17.4699 28.5481 17.308 28.5926C17.1461 28.637 16.9758 28.6413 16.8119 28.605C16.648 28.5687 16.4954 28.493 16.3674 28.3844C16.2394 28.2758 16.1398 28.1376 16.0773 27.9818L14.9932 24.8L13.9091 21.6182L8.09774 20.0273C7.93525 19.9918 7.78904 19.9036 7.68183 19.7765C7.57462 19.6493 7.51242 19.4903 7.5049 19.3242C7.49739 19.1581 7.54497 18.9941 7.64026 18.8578C7.73555 18.7215 7.87321 18.6205 8.03183 18.5705L30.4818 10.4818L30.8955 10.3341C31.7659 10.0295 32.6659 10.7341 32.475 11.5773Z" fill="#E07B98"/>
</g>
<defs>
<clipPath id="clip0_17_41">
<rect width="40" height="40" fill="white"/>
</clipPath>
</defs>
</svg>
