<svg width="546" height="120" viewBox="0 0 546 120" fill="none" xmlns="http://www.w3.org/2000/svg">
<path d="M119.84 6.47999C119.68 6.79999 119.48 7.2 119.24 7.68C119.08 8.08 118.88 8.6 118.64 9.23999C118.08 10.44 117.44 11.88 116.72 13.56C116 15.16 115.2 16.92 114.32 18.84C112.64 22.52 110.76 26.52 108.68 30.84C106.68 35.16 104.76 39.24 102.92 43.08C103.32 43.08 103.64 43.12 103.88 43.2C104.2 43.2 104.52 43.2 104.84 43.2C106.76 43.2 108.28 42.88 109.4 42.24C110.36 41.76 111.08 41.52 111.56 41.52C112.28 41.52 112.64 41.8 112.64 42.36C112.64 42.92 112.16 43.52 111.2 44.16C110 44.88 108.4 45.64 106.4 46.44C104.4 47.16 102.44 47.48 100.52 47.4C98.68 51.32 96.92 54.96 95.24 58.32C93.64 61.6 92.12 65.32 90.68 69.48C89.56 72.84 89 75.24 89 76.68C89 77.48 89.2 78.12 89.6 78.6C90 79 90.76 79.2 91.88 79.2C92.92 79.2 94.16 78.88 95.6 78.24C97.84 77.28 100.16 75.76 102.56 73.68C104.96 71.6 107.24 69.32 109.4 66.84C111.56 64.36 113.32 62.08 114.68 60C115.4 58.96 116.04 58.44 116.6 58.44C116.92 58.44 117.08 58.64 117.08 59.04C117.08 59.44 116.76 60.16 116.12 61.2C114.76 63.36 112.92 65.76 110.6 68.4C108.36 70.96 105.96 73.32 103.4 75.48C100.84 77.64 98.36 79.24 95.96 80.28C94.2 81 92.48 81.36 90.8 81.36C85.52 81.36 82.88 78.6 82.88 73.08C82.88 71.08 83.24 68.84 83.96 66.36C85 62.6 86.16 59.2 87.44 56.16C88.72 53.12 90.24 49.88 92 46.44C89.52 46.12 87.24 45.84 85.16 45.6C83.16 45.28 80.84 45.08 78.2 45C77 46.76 75.76 48.64 74.48 50.64C73.28 52.64 72.08 54.72 70.88 56.88C66.08 65.36 61.04 72.72 55.76 78.96C50.48 85.12 44.96 89.92 39.2 93.36C33.52 96.8 27.6 98.52 21.44 98.52C17.76 98.52 14.36 97.64 11.24 95.88C8.12 94.2 5.6 91.76 3.68 88.56C1.84 85.44 0.92 81.68 0.92 77.28C0.92 75.36 1.12 73.36 1.52 71.28C1.92 69.12 2.56 66.88 3.44 64.56C5.2 60 7.76 55.88 11.12 52.2C14.56 48.44 18.36 45.48 22.52 43.32C26.68 41.08 30.72 39.96 34.64 39.96C38.16 39.96 41.16 41.12 43.64 43.44C46.2 45.68 47.48 49 47.48 53.4C47.48 55.48 47.12 57.84 46.4 60.48C44.96 65.36 42.92 69.12 40.28 71.76C37.64 74.32 34.96 76.12 32.24 77.16C30.24 77.88 28.28 78.24 26.36 78.24C25 78.24 23.8 78.04 22.76 77.64C21.8 77.24 21.16 76.64 20.84 75.84C20.76 75.6 20.72 75.32 20.72 75C20.72 74.12 21.08 73.68 21.8 73.68C22.52 73.68 22.96 74.12 23.12 75C23.2 75.24 23.48 75.52 23.96 75.84C24.52 76.08 25.32 76.2 26.36 76.2C27 76.2 27.68 76.12 28.4 75.96C29.12 75.8 29.88 75.56 30.68 75.24C32.76 74.36 34.88 72.8 37.04 70.56C39.28 68.24 41.04 64.88 42.32 60.48C43.12 57.84 43.52 55.36 43.52 53.04C43.52 49.36 42.6 46.6 40.76 44.76C38.92 42.92 36.76 42 34.28 42C30.44 42 27.04 43.16 24.08 45.48C21.2 47.8 18.68 50.8 16.52 54.48C14.36 58.08 12.56 61.84 11.12 65.76C9.12 71.2 8.12 76.16 8.12 80.64C8.12 85.52 9.28 89.36 11.6 92.16C13.92 94.96 17.28 96.36 21.68 96.36C26.4 96.36 30.88 95.24 35.12 93C39.44 90.76 43.56 87.72 47.48 83.88C51.4 80.04 55.12 75.68 58.64 70.8C62.16 65.84 65.52 60.64 68.72 55.2C69.84 53.36 70.92 51.6 71.96 49.92C73 48.16 74.04 46.52 75.08 45C72.2 45 69.44 45.2 66.8 45.6C64.24 45.92 61.96 46.76 59.96 48.12C57.96 49.4 56.32 51.52 55.04 54.48C54.8 54.88 54.52 55.32 54.2 55.8C53.96 56.2 53.64 56.44 53.24 56.52C53.16 56.52 53.08 56.56 53 56.64C53 56.64 52.96 56.64 52.88 56.64C52.32 56.64 52.04 56.32 52.04 55.68C52.04 55.52 52.12 55.2 52.28 54.72C52.44 54.24 52.72 53.64 53.12 52.92C56.24 47.56 60 44.04 64.4 42.36C68.88 40.6 73.48 39.76 78.2 39.84C83.16 32.64 87.84 26.76 92.24 22.2C96.64 17.64 100.64 14.08 104.24 11.52C107.84 8.96 110.96 7.2 113.6 6.24C116.24 5.2 118.2 4.68 119.48 4.68C119.88 4.68 120.08 4.88 120.08 5.27999C120.08 5.76 120 6.16 119.84 6.47999ZM114.2 9.36C113.48 9.36 112.52 9.64 111.32 10.2C110.2 10.76 109.12 11.4 108.08 12.12C107.04 12.76 106.28 13.24 105.8 13.56C102.76 15.8 99.12 19.08 94.88 23.4C90.72 27.64 86.2 33.2 81.32 40.08C83.96 40.16 86.24 40.4 88.16 40.8C90.08 41.12 92.16 41.48 94.4 41.88C96.88 37.08 99.44 32.64 102.08 28.56C104.72 24.48 107.12 20.8 109.28 17.52C111.52 14.24 113.16 11.52 114.2 9.36ZM108.188 82.92C110.188 78.52 112.188 74 114.188 69.36C116.188 64.72 118.028 60.4 119.708 56.4C118.668 57.92 117.588 59.44 116.468 60.96C115.428 62.48 114.268 63.96 112.988 65.4C112.268 66.2 111.628 66.6 111.068 66.6C110.748 66.6 110.588 66.44 110.588 66.12C110.588 65.88 110.788 65.52 111.188 65.04C113.988 61.44 116.308 58.12 118.148 55.08C119.988 51.96 121.388 49.64 122.348 48.12C122.988 47 123.788 46.4 124.748 46.32C125.788 46.16 126.668 46.08 127.388 46.08C127.708 46.08 128.268 46.12 129.068 46.2C129.868 46.2 130.668 46.2 131.468 46.2C131.148 46.84 130.508 47.96 129.548 49.56C128.668 51.16 127.708 52.84 126.668 54.6C125.708 56.36 124.908 57.96 124.268 59.4C125.388 58.04 126.948 56.12 128.948 53.64C131.028 51.08 133.428 48.96 136.148 47.28C138.708 45.76 141.028 45 143.108 45C146.548 45 148.268 46.8 148.268 50.4C148.268 51.36 148.108 52.44 147.788 53.64C147.468 54.84 146.948 56.12 146.228 57.48C144.708 60.44 143.068 63.56 141.308 66.84C139.628 70.04 138.388 73.04 137.588 75.84C137.508 76.16 137.428 76.44 137.348 76.68C137.348 76.92 137.348 77.16 137.348 77.4C137.348 78.84 138.068 79.56 139.508 79.56C140.308 79.56 141.228 79.32 142.268 78.84C144.508 77.88 146.908 76.36 149.468 74.28C152.028 72.2 154.428 69.92 156.668 67.44C158.988 64.96 160.828 62.68 162.188 60.6C162.668 59.8 163.148 59.4 163.628 59.4C164.028 59.4 164.228 59.6 164.228 60C164.228 60.48 164.068 60.92 163.748 61.32C162.308 63.48 160.428 65.92 158.108 68.64C155.868 71.28 153.428 73.76 150.788 76.08C148.228 78.32 145.748 79.96 143.348 81C141.668 81.64 140.068 81.96 138.548 81.96C136.468 81.96 134.628 81.44 133.028 80.4C131.508 79.28 130.748 77.64 130.748 75.48C130.748 75.16 130.748 74.84 130.748 74.52C130.828 74.12 130.908 73.76 130.988 73.44C131.628 70.48 132.908 67.44 134.828 64.32C136.748 61.12 138.508 58.04 140.108 55.08C140.988 53.32 141.428 51.96 141.428 51C141.428 49.72 140.788 49.08 139.508 49.08C138.948 49.08 138.308 49.2 137.588 49.44C136.868 49.68 136.108 50.12 135.308 50.76C133.628 51.88 131.868 53.6 130.028 55.92C128.188 58.16 126.308 60.92 124.388 64.2C122.628 67.32 120.988 70.44 119.468 73.56C117.948 76.68 116.708 79.28 115.748 81.36C114.548 81.36 113.148 81.56 111.548 81.96C110.028 82.36 108.908 82.68 108.188 82.92ZM156 82.92C158 78.52 160 74 162 69.36C164 64.72 165.84 60.4 167.52 56.4C166.48 57.92 165.4 59.44 164.28 60.96C163.24 62.48 162.08 63.96 160.8 65.4C160.08 66.2 159.44 66.6 158.88 66.6C158.56 66.6 158.4 66.44 158.4 66.12C158.4 65.88 158.6 65.52 159 65.04C161.8 61.44 164.12 58.12 165.96 55.08C167.8 51.96 169.2 49.64 170.16 48.12C170.8 47 171.6 46.4 172.56 46.32C173.6 46.16 174.48 46.08 175.2 46.08C175.52 46.08 176.08 46.12 176.88 46.2C177.68 46.2 178.48 46.2 179.28 46.2C178.96 46.84 178.32 47.96 177.36 49.56C176.48 51.16 175.52 52.84 174.48 54.6C173.52 56.36 172.72 57.96 172.08 59.4C173.2 58.04 174.76 56.12 176.76 53.64C178.84 51.08 181.24 48.96 183.96 47.28C186.52 45.76 188.84 45 190.92 45C194.36 45 196.08 46.8 196.08 50.4C196.08 51.36 195.92 52.44 195.6 53.64C195.28 54.84 194.76 56.12 194.04 57.48C192.52 60.44 190.88 63.56 189.12 66.84C187.44 70.04 186.2 73.04 185.4 75.84C185.32 76.16 185.24 76.44 185.16 76.68C185.16 76.92 185.16 77.16 185.16 77.4C185.16 78.84 185.88 79.56 187.32 79.56C188.12 79.56 189.04 79.32 190.08 78.84C192.32 77.88 194.72 76.36 197.28 74.28C199.84 72.2 202.24 69.92 204.48 67.44C206.8 64.96 208.64 62.68 210 60.6C210.48 59.8 210.96 59.4 211.44 59.4C211.84 59.4 212.04 59.6 212.04 60C212.04 60.48 211.88 60.92 211.56 61.32C210.12 63.48 208.24 65.92 205.92 68.64C203.68 71.28 201.24 73.76 198.6 76.08C196.04 78.32 193.56 79.96 191.16 81C189.48 81.64 187.88 81.96 186.36 81.96C184.28 81.96 182.44 81.44 180.84 80.4C179.32 79.28 178.56 77.64 178.56 75.48C178.56 75.16 178.56 74.84 178.56 74.52C178.64 74.12 178.72 73.76 178.8 73.44C179.44 70.48 180.72 67.44 182.64 64.32C184.56 61.12 186.32 58.04 187.92 55.08C188.8 53.32 189.24 51.96 189.24 51C189.24 49.72 188.6 49.08 187.32 49.08C186.76 49.08 186.12 49.2 185.4 49.44C184.68 49.68 183.92 50.12 183.12 50.76C181.44 51.88 179.68 53.6 177.84 55.92C176 58.16 174.12 60.92 172.2 64.2C170.44 67.32 168.8 70.44 167.28 73.56C165.76 76.68 164.52 79.28 163.56 81.36C162.36 81.36 160.96 81.56 159.36 81.96C157.84 82.36 156.72 82.68 156 82.92ZM236.933 81.72C234.693 81.72 233.093 80.84 232.133 79.08C231.173 77.32 230.693 75.28 230.693 72.96C230.693 72.56 230.693 72.12 230.693 71.64C230.693 71.16 230.733 70.72 230.813 70.32C229.293 73.04 227.333 75.6 224.933 78C222.533 80.4 219.573 81.6 216.053 81.6C213.653 81.6 211.613 80.72 209.933 78.96C208.333 77.2 207.533 74.52 207.533 70.92C207.533 68.04 208.333 64.44 209.933 60.12C210.813 58.04 212.093 55.92 213.773 53.76C215.453 51.6 217.493 49.8 219.893 48.36C222.293 46.84 224.973 46.08 227.933 46.08C231.133 46.08 233.373 46.68 234.653 47.88C235.933 49.08 236.733 50 237.053 50.64C237.053 50.72 237.053 50.8 237.053 50.88C237.133 50.88 237.173 50.92 237.173 51C237.173 51.72 236.733 52.08 235.853 52.08C235.453 52.08 235.053 51.88 234.653 51.48C233.693 50.36 232.733 49.56 231.773 49.08C230.813 48.6 229.893 48.36 229.013 48.36C227.173 48.36 225.453 49.16 223.853 50.76C222.253 52.28 220.813 54.12 219.533 56.28C218.333 58.36 217.333 60.32 216.533 62.16C215.413 64.72 214.573 67.04 214.013 69.12C213.533 71.12 213.293 72.8 213.293 74.16C213.293 77.76 214.533 79.56 217.013 79.56C218.773 79.56 220.853 78.44 223.253 76.2C225.653 73.96 227.933 70.64 230.093 66.24C232.013 62.4 233.733 59 235.253 56.04C236.773 53 238.093 50.36 239.213 48.12C239.453 47.56 240.053 47.16 241.013 46.92C241.973 46.6 242.933 46.44 243.893 46.44C244.773 46.44 245.573 46.6 246.293 46.92C247.013 47.16 247.373 47.6 247.373 48.24C247.373 48.56 247.173 49 246.773 49.56C245.813 50.92 244.573 52.92 243.053 55.56C241.613 58.2 240.253 60.96 238.973 63.84C237.773 66.72 236.973 69.28 236.573 71.52C236.333 72.72 236.213 73.8 236.213 74.76C236.213 77.32 237.093 78.6 238.853 78.6C239.413 78.6 240.293 78.4 241.493 78C243.733 77.04 246.013 75.56 248.333 73.56C250.733 71.48 252.973 69.2 255.053 66.72C257.213 64.24 259.013 61.92 260.453 59.76C261.173 58.72 261.733 58.2 262.133 58.2C262.373 58.2 262.493 58.4 262.493 58.8C262.493 59.44 262.173 60.24 261.533 61.2C260.093 63.36 258.253 65.76 256.013 68.4C253.853 71.04 251.493 73.48 248.933 75.72C246.453 77.96 244.013 79.6 241.613 80.64C239.853 81.36 238.293 81.72 236.933 81.72ZM327.708 86.76C324.188 86.76 322.108 85.2 321.468 82.08C321.388 81.6 321.308 81.12 321.228 80.64C321.228 80.16 321.228 79.64 321.228 79.08C321.228 75.96 321.868 72.4 323.148 68.4C324.428 64.32 326.028 60.44 327.948 56.76C330.508 51.88 332.308 47.4 333.348 43.32C334.468 39.24 335.028 35.6 335.028 32.4C335.028 28 334.228 24.36 332.628 21.48C331.108 18.6 329.148 16.48 326.748 15.12C324.348 13.68 321.868 13 319.308 13.08C315.548 13.16 312.108 14.04 308.988 15.72C305.868 17.4 303.148 19.6 300.828 22.32C298.508 25.04 296.708 28.08 295.428 31.44C294.148 34.72 293.508 38.04 293.508 41.4C293.508 43 293.708 44.72 294.108 46.56C294.748 49.44 295.988 51.68 297.828 53.28C299.748 54.8 301.748 55.56 303.828 55.56C306.148 55.56 308.228 54.52 310.068 52.44C311.988 50.28 312.868 46.92 312.708 42.36C312.708 41.96 312.828 41.64 313.068 41.4C313.308 41.08 313.548 40.92 313.788 40.92C314.188 40.92 314.388 41.32 314.388 42.12C314.628 45.72 314.068 48.76 312.708 51.24C311.348 53.72 309.548 55.6 307.308 56.88C305.068 58.16 302.708 58.8 300.228 58.8C297.348 58.8 294.668 57.92 292.188 56.16C289.788 54.32 288.148 51.56 287.268 47.88C287.108 47 286.988 46.16 286.908 45.36C286.828 44.48 286.788 43.64 286.788 42.84C286.788 38.84 287.628 34.96 289.308 31.2C291.068 27.44 293.468 24.08 296.508 21.12C299.628 18.08 303.228 15.68 307.308 13.92C311.468 12.16 315.908 11.28 320.628 11.28C324.868 11.28 328.668 12.2 332.028 14.04C335.468 15.8 338.148 18.4 340.068 21.84C342.068 25.2 343.068 29.28 343.068 34.08C343.068 37.28 342.548 40.76 341.508 44.52C340.548 48.2 338.988 52.16 336.828 56.4C335.708 58.56 334.468 61.16 333.108 64.2C331.828 67.16 330.708 70.08 329.748 72.96C328.868 75.84 328.428 78.28 328.428 80.28C328.428 82.68 329.348 83.88 331.188 83.88C332.308 83.88 333.548 83.52 334.908 82.8C336.268 82.16 337.548 81.44 338.748 80.64C339.948 79.76 340.788 79.08 341.268 78.6C344.628 75.8 348.228 72.28 352.068 68.04C355.988 63.72 359.788 58.92 363.468 53.64C367.148 48.28 370.388 42.68 373.188 36.84C376.068 30.92 378.148 25 379.428 19.08C379.588 18.44 379.708 17.76 379.788 17.04C379.868 16.32 379.908 15.56 379.908 14.76C379.908 12.92 379.668 11.12 379.188 9.36C378.708 7.52 377.868 6 376.668 4.79999C375.548 3.52 373.948 2.88 371.868 2.88C371.548 2.88 371.228 2.92 370.908 3C370.588 3 370.228 3.04 369.828 3.11999C369.188 3.28 368.508 3.6 367.788 4.08C367.148 4.48 366.668 4.68 366.348 4.68C365.948 4.6 365.628 4.4 365.388 4.08C365.228 3.76 365.308 3.43999 365.628 3.11999C366.348 2.24 367.748 1.6 369.828 1.2C370.228 1.03999 370.628 0.959993 371.028 0.959993C371.428 0.959993 371.828 0.959993 372.228 0.959993C374.308 0.959993 376.388 1.47999 378.468 2.51999C380.628 3.56 382.428 5.12 383.868 7.2C385.388 9.28 386.148 11.84 386.148 14.88C386.148 15.36 386.148 15.84 386.148 16.32C386.148 16.8 386.068 17.32 385.908 17.88C385.028 23.08 383.148 28.56 380.268 34.32C377.468 40.08 374.068 45.72 370.068 51.24C366.068 56.76 361.828 61.92 357.348 66.72C352.948 71.52 348.668 75.56 344.508 78.84C341.068 81.56 337.908 83.56 335.028 84.84C332.228 86.12 329.788 86.76 327.708 86.76ZM392.531 42.12C391.331 42.12 390.411 41.72 389.771 40.92C389.131 40.12 388.811 39.2 388.811 38.16C388.811 37.04 389.211 36.12 390.011 35.4C390.891 34.68 391.811 34.32 392.771 34.32C393.971 34.32 394.931 34.72 395.651 35.52C396.371 36.24 396.731 37.12 396.731 38.16C396.731 39.2 396.291 40.12 395.411 40.92C394.531 41.72 393.571 42.12 392.531 42.12ZM386.771 83.04C384.051 83.04 381.891 82.04 380.291 80.04C378.691 77.96 377.891 75.36 377.891 72.24C377.891 70 378.291 67.72 379.091 65.4C379.491 64.12 379.971 62.64 380.531 60.96C381.091 59.2 381.611 57.68 382.091 56.4C381.051 57.92 379.971 59.44 378.851 60.96C377.811 62.48 376.651 63.96 375.371 65.4C374.651 66.2 373.971 66.6 373.331 66.6C373.011 66.6 372.851 66.44 372.851 66.12C372.851 65.8 373.051 65.4 373.451 64.92C376.251 61.32 378.571 58 380.411 54.96C382.331 51.92 383.771 49.64 384.731 48.12C385.371 47 386.411 46.32 387.851 46.08C389.291 45.84 390.531 45.76 391.571 45.84C391.891 45.84 392.251 45.88 392.651 45.96C393.051 45.96 393.651 45.96 394.451 45.96C393.971 46.92 393.211 48.56 392.171 50.88C391.211 53.12 390.211 55.56 389.171 58.2C388.131 60.76 387.211 63.04 386.411 65.04C385.691 66.8 385.091 68.56 384.611 70.32C384.211 72.08 384.011 73.68 384.011 75.12C384.011 76.64 384.291 77.88 384.851 78.84C385.411 79.8 386.291 80.28 387.491 80.28C389.091 80.28 390.931 79.64 393.011 78.36C395.091 77.08 397.171 75.48 399.251 73.56C401.411 71.64 403.371 69.68 405.131 67.68C406.971 65.6 408.411 63.76 409.451 62.16C409.771 61.68 410.131 61.44 410.531 61.44C410.931 61.44 411.131 61.76 411.131 62.4C411.131 62.88 410.971 63.32 410.651 63.72C406.491 69.4 402.451 74.04 398.531 77.64C394.691 81.24 390.771 83.04 386.771 83.04ZM424.358 81.84C422.358 81.84 420.838 81.24 419.798 80.04C418.758 78.76 418.238 77.12 418.238 75.12C418.238 74.24 418.318 73.28 418.478 72.24C418.718 71.12 419.078 70.04 419.558 69C420.438 66.92 421.438 64.96 422.558 63.12C423.758 61.2 424.838 59.12 425.798 56.88C426.358 55.68 426.638 54.6 426.638 53.64C426.638 52.44 426.158 51.64 425.198 51.24C424.238 50.76 423.078 50.48 421.718 50.4C420.358 50.24 419.078 50.04 417.878 49.8C416.598 53.48 415.078 56.76 413.318 59.64C411.638 62.52 409.518 65.4 406.958 68.28C406.078 69.16 405.438 69.6 405.038 69.6C404.718 69.6 404.558 69.44 404.558 69.12C404.558 68.56 404.998 67.8 405.878 66.84C407.638 64.84 409.198 62.72 410.558 60.48C411.998 58.16 413.158 56 414.038 54C414.998 52 415.598 50.52 415.838 49.56C414.078 48.84 412.678 47.48 411.638 45.48C410.598 43.4 410.078 41.36 410.078 39.36C410.078 36.96 410.678 35 411.878 33.48C413.078 31.88 414.318 31.08 415.598 31.08C416.718 31.08 417.718 31.72 418.598 33C419.478 34.28 419.918 36.44 419.918 39.48C419.918 40.76 419.758 42.08 419.438 43.44C419.118 44.72 418.838 45.8 418.598 46.68C419.558 46.84 420.678 46.96 421.958 47.04C423.238 47.04 424.318 47.08 425.198 47.16C426.238 47.16 427.238 47.2 428.198 47.28C429.238 47.36 430.158 47.52 430.958 47.76C433.118 48.4 434.198 49.72 434.198 51.72C434.198 53.48 433.518 55.68 432.158 58.32C431.118 60.56 429.958 62.8 428.678 65.04C427.398 67.28 426.318 69.56 425.438 71.88C425.118 72.68 424.838 73.52 424.598 74.4C424.438 75.2 424.358 75.92 424.358 76.56C424.358 78.16 425.078 78.96 426.518 78.96C427.318 78.96 428.358 78.72 429.638 78.24C431.878 77.28 434.198 75.76 436.598 73.68C439.078 71.6 441.398 69.32 443.558 66.84C445.718 64.36 447.478 62.08 448.838 60C449.558 58.96 450.198 58.44 450.758 58.44C451.078 58.44 451.238 58.64 451.238 59.04C451.238 59.6 450.918 60.32 450.278 61.2C448.918 63.36 447.078 65.76 444.758 68.4C442.518 70.96 440.118 73.36 437.558 75.6C434.998 77.76 432.518 79.36 430.118 80.4C427.878 81.36 425.958 81.84 424.358 81.84ZM416.558 46.32C416.638 46 416.678 45.44 416.678 44.64C416.678 44 416.638 43.32 416.558 42.6C416.558 41.8 416.558 41 416.558 40.2C416.558 36.84 416.118 35.24 415.238 35.4C414.918 35.48 414.638 35.88 414.398 36.6C414.158 37.32 414.038 38.16 414.038 39.12C414.038 40.48 414.238 41.88 414.638 43.32C415.118 44.76 415.758 45.76 416.558 46.32ZM439.287 119.76C436.567 119.76 434.287 119.16 432.447 117.96C430.607 116.76 429.687 115.08 429.687 112.92C429.687 110.6 430.967 107.92 433.527 104.88C435.207 102.96 437.367 101.16 440.007 99.48C442.567 97.88 445.327 96.32 448.287 94.8C451.247 93.36 454.167 91.96 457.047 90.6C459.927 89.24 462.487 87.88 464.727 86.52C465.127 85 465.767 83.04 466.647 80.64C467.527 78.24 468.207 76.16 468.687 74.4C467.247 76.24 465.487 78 463.407 79.68C461.327 81.36 459.007 82.2 456.447 82.2C452.527 82.2 449.847 81.12 448.407 78.96C446.967 76.8 446.247 74.24 446.247 71.28C446.247 69.44 446.487 67.56 446.967 65.64C447.447 63.64 447.967 61.88 448.527 60.36C449.407 58.28 450.647 56.16 452.247 54C453.927 51.76 455.927 49.88 458.247 48.36C460.647 46.84 463.327 46.08 466.287 46.08C469.567 46.08 471.847 46.68 473.127 47.88C474.487 49 475.327 49.92 475.647 50.64C475.807 51.12 475.887 51.44 475.887 51.6C475.887 52.4 475.447 52.8 474.567 52.8C473.927 52.8 473.407 52.56 473.007 52.08C471.967 50.88 470.967 50.04 470.007 49.56C469.047 49 468.127 48.72 467.247 48.72C465.647 48.72 464.167 49.48 462.807 51C461.447 52.44 460.247 54.2 459.207 56.28C458.167 58.28 457.207 60.16 456.327 61.92C455.847 62.96 455.247 64.64 454.527 66.96C453.887 69.28 453.567 71.52 453.567 73.68C453.567 75.2 453.847 76.52 454.407 77.64C455.047 78.76 456.127 79.32 457.647 79.32C459.567 79.32 461.367 78.6 463.047 77.16C464.727 75.72 466.207 74 467.487 72C468.767 70 469.767 68.2 470.487 66.6C472.487 62.2 474.047 58.72 475.167 56.16C476.287 53.52 477.367 51.36 478.407 49.68C479.447 47.92 480.767 46.16 482.367 44.4C483.247 43.44 484.087 42.76 484.887 42.36C485.767 41.96 486.567 41.76 487.287 41.76C488.407 41.76 489.287 42.12 489.927 42.84C490.647 43.48 491.007 44.24 491.007 45.12C491.007 46.32 490.327 47.28 488.967 48C487.527 48.72 486.247 49.36 485.127 49.92C484.007 50.48 483.047 51.16 482.247 51.96C479.687 54.52 477.847 57.64 476.727 61.32C475.687 64.92 474.927 68.68 474.447 72.6C474.047 76.52 473.487 80.2 472.767 83.64C475.887 81.56 478.687 79.48 481.167 77.4C483.727 75.32 486.167 73 488.487 70.44C490.887 67.88 493.367 64.8 495.927 61.2C496.327 60.56 496.847 60.24 497.487 60.24C497.807 60.24 497.967 60.44 497.967 60.84C497.967 61.32 497.767 61.8 497.367 62.28C494.887 65.72 492.487 68.84 490.167 71.64C487.847 74.44 485.287 77.08 482.487 79.56C479.687 82.04 476.287 84.6 472.287 87.24C470.927 93.4 468.767 98.52 465.807 102.6C462.927 106.68 459.847 109.92 456.567 112.32C453.367 114.8 450.527 116.6 448.047 117.72C444.927 119.08 442.007 119.76 439.287 119.76ZM436.287 117.12C438.767 117.12 441.447 116.24 444.327 114.48C448.327 112.08 451.927 108.88 455.127 104.88C458.407 100.88 461.247 95.84 463.647 89.76C461.647 90.8 459.247 91.92 456.447 93.12C453.647 94.32 451.167 95.6 449.007 96.96C446.527 98.4 444.207 99.92 442.047 101.52C439.887 103.12 438.087 104.84 436.647 106.68C434.007 110.04 432.687 112.6 432.687 114.36C432.687 116.2 433.887 117.12 436.287 117.12ZM505.819 82.56C501.899 82.56 499.059 81.16 497.299 78.36C495.539 75.48 494.659 72.16 494.659 68.4C494.659 64.88 495.299 61.36 496.579 57.84C497.939 54.24 499.779 51.24 502.099 48.84C504.499 46.44 507.299 45.24 510.499 45.24C510.659 45.24 511.019 45.28 511.579 45.36C512.139 45.36 512.499 45.4 512.659 45.48C515.059 43.08 517.539 41.88 520.099 41.88C522.419 41.88 524.379 42.92 525.979 45C527.659 47 528.499 49.84 528.499 53.52C528.499 56.08 528.099 58.8 527.299 61.68C526.499 64.56 525.459 67.28 524.179 69.84C522.979 72.32 521.659 74.36 520.219 75.96C520.539 76.04 520.819 76.08 521.059 76.08C521.299 76.08 521.579 76.08 521.899 76.08C524.699 76.08 527.459 75.36 530.179 73.92C532.899 72.48 535.459 70.6 537.859 68.28C540.339 65.88 542.499 63.28 544.339 60.48C544.739 60 545.019 59.76 545.179 59.76C545.579 59.76 545.779 60.04 545.779 60.6C545.779 61.16 545.619 61.64 545.299 62.04C544.499 63.48 543.259 65.16 541.579 67.08C539.899 68.92 537.939 70.76 535.699 72.6C533.539 74.44 531.219 75.96 528.739 77.16C526.259 78.36 523.779 78.96 521.299 78.96C520.739 78.96 520.139 78.92 519.499 78.84C518.939 78.68 518.379 78.56 517.819 78.48C516.539 79.68 514.699 80.64 512.299 81.36C509.899 82.16 507.739 82.56 505.819 82.56ZM516.859 74.88C519.179 72.32 520.979 69.04 522.259 65.04C523.539 61.04 524.179 57.2 524.179 53.52C524.179 53.04 524.179 52.56 524.179 52.08C524.179 51.6 524.139 51.16 524.059 50.76C523.819 48.68 523.339 47.2 522.619 46.32C521.899 45.36 521.059 44.88 520.099 44.88C518.659 44.88 517.139 45.76 515.539 47.52C514.019 49.2 512.939 51.24 512.299 53.64C511.659 55.96 511.339 58.4 511.339 60.96C511.339 63.92 511.779 66.72 512.659 69.36C513.539 71.92 514.939 73.76 516.859 74.88ZM508.219 79.44C510.539 79.44 512.699 78.64 514.699 77.04C512.459 75.44 510.819 73.24 509.779 70.44C508.739 67.64 508.219 64.68 508.219 61.56C508.219 59.32 508.459 57.12 508.939 54.96C509.499 52.72 510.259 50.72 511.219 48.96C509.699 49.28 508.219 50.6 506.779 52.92C505.339 55.24 504.139 57.96 503.179 61.08C502.299 64.2 501.859 67.2 501.859 70.08C501.859 72.72 502.339 74.96 503.299 76.8C504.259 78.56 505.899 79.44 508.219 79.44Z" fill="#452D43"/>
</svg>
