<svg width="535" height="175" viewBox="0 0 535 175" fill="none" xmlns="http://www.w3.org/2000/svg">
<path d="M78.4678 84.8537L62.9171 57.9006L85.5962 44.8158L101.147 71.7689L98.3361 73.3906L83.7629 48.1317L84.9388 48.4797L66.4181 59.1652L66.7054 57.9731L81.2786 83.232L78.4678 84.8537Z" fill="#E07B98"/>
<path d="M105.991 50.4164L121.028 43.7513L122.163 46.3117L107.126 52.9767L105.991 50.4164ZM112.135 63.399L129.244 55.8153L130.397 58.4162L110.28 67.333L97.6707 38.885L117.178 30.2384L118.331 32.8394L101.831 40.1529L112.135 63.399Z" fill="#E07B98"/>
<path d="M135.917 56.314L125.907 26.8504L136.935 23.104C139.432 22.2555 141.717 21.9332 143.789 22.1368C145.852 22.3124 147.618 22.9958 149.087 24.1869C150.574 25.3405 151.68 26.9836 152.405 29.1162C153.11 31.1926 153.229 33.1553 152.762 35.0043C152.313 36.8156 151.329 38.4332 149.809 39.857C148.29 41.2809 146.282 42.417 143.784 43.2655L134.482 46.4256L135.371 44.4806L139.031 55.2558L135.917 56.314ZM135.456 44.7331L133.553 43.6897L142.771 40.5582C145.717 39.5572 147.733 38.168 148.819 36.3905C149.924 34.5754 150.081 32.5033 149.29 30.1743C148.489 27.8172 147.098 26.2554 145.116 25.489C143.162 24.713 140.712 24.8254 137.766 25.8264L128.548 28.9579L129.436 27.0129L135.456 44.7331Z" fill="#E07B98"/>
<path d="M164.92 29.1149L180.896 25.2049L181.562 27.9252L165.586 31.8352L164.92 29.1149ZM168.679 42.9772L186.857 38.5282L187.534 41.2917L166.16 46.5227L158.763 16.2974L179.489 11.2249L180.165 13.9883L162.634 18.2788L168.679 42.9772Z" fill="#E07B98"/>
<path d="M194.483 39.9233L189.619 9.18842L201.122 7.36782C203.727 6.95552 206.034 7.02556 208.042 7.57794C210.045 8.10106 211.669 9.07418 212.914 10.4973C214.184 11.8866 214.995 13.6935 215.347 15.9181C215.69 18.0842 215.474 20.0386 214.7 21.7814C213.95 23.4903 212.706 24.9174 210.967 26.0628C209.228 27.2081 207.056 27.9869 204.451 28.3992L194.747 29.9349L195.953 28.1689L197.732 39.4091L194.483 39.9233ZM195.995 28.4323L194.296 27.081L203.911 25.5592C206.985 25.0728 209.208 24.0459 210.58 22.4785C211.977 20.8772 212.483 18.8618 212.098 16.4323C211.709 13.9735 210.603 12.1983 208.78 11.1066C206.986 10.0103 204.553 9.70534 201.479 10.1918L191.864 11.7136L193.069 9.9475L195.995 28.4323Z" fill="#E07B98"/>
<path d="M239.053 34.653C236.717 34.8071 234.518 34.5661 232.456 33.9299C230.422 33.2621 228.619 32.2673 227.047 30.9454C225.503 29.592 224.254 27.9963 223.301 26.1584C222.376 24.2889 221.838 22.2156 221.688 19.9387C221.538 17.6617 221.799 15.5505 222.473 13.6053C223.174 11.6286 224.203 9.88268 225.558 8.36768C226.941 6.82115 228.598 5.59812 230.528 4.69858C232.457 3.76946 234.604 3.22688 236.97 3.07083C239.306 2.91674 241.491 3.17356 243.525 3.8413C245.557 4.47946 247.344 5.46047 248.887 6.78431C250.459 8.10621 251.708 9.70189 252.633 11.5714C253.588 13.4389 254.14 15.5111 254.29 17.7881C254.441 20.0651 254.165 22.192 253.464 24.1688C252.792 26.1436 251.764 27.8894 250.379 29.4064C249.024 30.9214 247.382 32.1435 245.453 33.0726C243.522 33.9721 241.389 34.4989 239.053 34.653ZM238.86 31.7255C240.723 31.6026 242.418 31.1789 243.944 30.4546C245.498 29.6987 246.813 28.706 247.891 27.4767C248.995 26.2158 249.822 24.7951 250.372 23.2144C250.919 21.6042 251.131 19.8676 251.008 18.0047C250.885 16.1417 250.448 14.4628 249.696 12.968C248.942 11.4436 247.935 10.1438 246.676 9.06852C245.445 7.96174 244.01 7.15052 242.373 6.63485C240.762 6.08766 239.026 5.87551 237.163 5.9984C235.3 6.12128 233.591 6.56068 232.037 7.31658C230.482 8.04291 229.151 9.03651 228.046 10.2974C226.969 11.5267 226.142 12.9475 225.565 14.5596C225.016 16.1403 224.803 17.8621 224.926 19.7251C225.047 21.5585 225.484 23.2374 226.238 24.7618C227.022 26.2842 228.029 27.5988 229.261 28.7056C230.52 29.7808 231.969 30.5911 233.609 31.1363C235.246 31.652 236.997 31.8484 238.86 31.7255Z" fill="#E07B98"/>
<path d="M285.499 32.3582L286.32 5.65432L271.436 5.19625L270.937 12.7416C270.776 15.0789 270.558 17.3256 270.284 19.4816C270.041 21.6089 269.686 23.5252 269.218 25.2305C268.781 26.907 268.205 28.268 267.491 29.3135C266.807 30.3598 265.929 30.9554 264.857 31.1003L261.278 30.3231C262.461 30.4188 263.452 30.0193 264.25 29.1248C265.078 28.2311 265.725 26.9613 266.191 25.3152C266.686 23.6701 267.072 21.7399 267.348 19.5246C267.623 17.3094 267.845 14.9146 268.014 12.3403L268.679 2.26506L289.652 2.91047L288.742 32.458L285.499 32.3582ZM259.821 40.1071L260.167 30.2889L293.447 31.313L293.145 41.1326L290.079 41.0383L290.294 34.0624L263.146 33.2269L262.887 40.2014L259.821 40.1071Z" fill="#E07B98"/>
<path d="M334.082 39.1865L325.879 22.4328L328.867 21.2191L337.871 39.6948L334.082 39.1865ZM319.149 22.7858L319.533 19.922L328.344 21.1041L327.96 23.9679L319.149 22.7858ZM328.745 23.1313L325.82 22.2007L337.69 8.27441L341.215 8.74724L328.745 23.1313ZM299.231 34.5113L295.442 34.003L308.997 18.5535L311.56 20.5119L299.231 34.5113ZM318.265 37.0646L315.092 36.6391L319.23 5.79794L322.402 6.22349L318.265 37.0646ZM317.959 22.6262L309.147 21.4442L309.531 18.5803L318.343 19.7624L317.959 22.6262ZM308.61 20.4303L300.373 3.26828L303.897 3.74112L311.633 20.2976L308.61 20.4303Z" fill="#E07B98"/>
<path d="M351.143 25.4054L367.144 29.2152L366.495 31.9396L350.494 28.1298L351.143 25.4054ZM348.163 39.4557L366.369 43.7906L365.71 46.5583L344.304 41.4614L351.512 11.1903L372.269 16.1327L371.61 18.9003L354.053 14.7199L348.163 39.4557Z" fill="#E07B98"/>
<path d="M404.338 26.39L407.412 27.4316L397.424 56.9026L394.35 55.861L404.338 26.39ZM375.91 49.6116L372.795 48.5558L382.782 19.0848L385.898 20.1406L375.91 49.6116ZM399.254 42.3621L380.182 35.8987L381.109 33.1621L400.181 39.6256L399.254 42.3621Z" fill="#E07B98"/>
<path d="M440.324 41.8917L443.268 43.2582L430.165 71.4825L427.221 70.116L440.324 41.8917ZM409.561 61.9175L406.577 60.5324L419.68 32.308L422.664 33.6932L409.561 61.9175ZM433.55 57.2236L415.284 48.7442L416.501 46.1234L434.766 54.6027L433.55 57.2236Z" fill="#E07B98"/>
<path d="M454.254 85.5172L459.591 76.6919L459.891 77.9127L451.18 72.6454C449.05 71.3573 447.446 69.8855 446.369 68.23C445.318 66.5898 444.793 64.8524 444.794 63.0176C444.836 61.1728 445.432 59.2994 446.582 57.3974C447.809 55.3686 449.275 53.9175 450.98 53.044C452.701 52.1452 454.563 51.8162 456.564 52.0568C458.607 52.2874 460.68 53.0391 462.785 54.3119L473.132 60.5683L457.031 87.1963L454.254 85.5172ZM436.185 74.5914L448.386 69.1899L451.277 70.938L439.19 76.4086L436.185 74.5914ZM460.074 75.893L469.366 60.5249L469.644 61.7838L461.427 56.8154C458.942 55.3127 456.654 54.7432 454.564 55.1071C452.515 55.4609 450.808 56.7664 449.443 59.0234C448.124 61.2044 447.738 63.2742 448.286 65.2328C448.848 67.1661 450.372 68.8841 452.857 70.3869L461.34 75.5162L460.074 75.893Z" fill="#E07B98"/>
<path fill-rule="evenodd" clip-rule="evenodd" d="M57.7967 89.8821C30.9916 114.234 15.4202 143.464 15.4202 174.854H14C14 142.976 29.8183 113.398 56.8336 88.8545L57.7967 89.8821ZM519.58 174.854C519.58 143.464 504.008 114.234 477.203 89.8821L478.166 88.8545C505.182 113.398 521 142.976 521 174.854H519.58Z" fill="#E07B98"/>
<path d="M22.5919 92.7566L32.252 112.714L53.6449 106.887L33.6879 116.548L39.5141 137.94L29.854 117.983L8.4611 123.81L28.4181 114.149L22.5919 92.7566Z" fill="#E07B98"/>
<path d="M512.408 92.7566L502.748 112.714L481.355 106.887L501.312 116.548L495.486 137.94L505.146 117.983L526.539 123.81L506.582 114.149L512.408 92.7566Z" fill="#E07B98"/>
<path d="M41.4673 61.475L44.9599 70.5791L43.3766 68.9906C44.0539 68.5274 44.7488 68.3628 45.4616 68.4966C46.155 68.6022 46.7333 68.9936 47.1964 69.6708C47.6595 70.348 47.8242 71.043 47.6904 71.7557C47.5566 72.4685 47.1793 73.0371 46.5585 73.4616C45.8813 73.9248 45.1863 74.0894 44.4736 73.9556C43.7698 73.7743 43.196 73.3591 42.7521 72.7101C42.5784 72.4562 42.4382 72.2208 42.3313 72.004C42.2244 71.7871 42.1169 71.5087 42.0085 71.1686C41.9002 70.8286 41.7815 70.4128 41.6524 69.9212L39.4356 62.8644L41.4673 61.475ZM48.6628 56.5542L52.1554 65.6583L50.5721 64.0698C51.2494 63.6066 51.9443 63.442 52.6571 63.5758C53.3505 63.6814 53.9288 64.0728 54.3919 64.75C54.855 65.4272 55.0197 66.1222 54.8859 66.8349C54.7521 67.5477 54.3748 68.1163 53.754 68.5408C53.0768 69.004 52.3818 69.1686 51.6691 69.0348C50.9653 68.8535 50.3915 68.4383 49.9476 67.7893C49.7739 67.5354 49.6337 67.3 49.5268 67.0832C49.42 66.8663 49.3124 66.5879 49.204 66.2478C49.0957 65.9078 48.977 65.492 48.848 65.0004L46.6311 57.9436L48.6628 56.5542Z" fill="#E07B98"/>
<path d="M477.671 71.58L484.313 64.5095L483.6 66.5827C482.918 66.1924 482.458 65.6537 482.221 64.9668C482.03 64.2671 482.138 63.5611 482.546 62.8489C482.953 62.1367 483.506 61.6853 484.206 61.4947C484.935 61.321 485.627 61.4209 486.279 61.7942C486.962 62.1845 487.375 62.7359 487.519 63.4482C487.71 64.1479 487.61 64.839 487.22 65.5216C487.084 65.759 486.933 65.9879 486.768 66.2084C486.602 66.4288 486.39 66.6619 486.132 66.9078C485.92 67.1409 485.621 67.4228 485.235 67.7534L479.808 72.8018L477.671 71.58ZM485.239 75.9072L491.881 68.8366L491.168 70.9099C490.485 70.5196 490.025 69.9809 489.788 69.2939C489.597 68.5943 489.706 67.8883 490.113 67.1761C490.52 66.4639 491.074 66.0125 491.773 65.8219C492.503 65.6482 493.194 65.7481 493.847 66.1214C494.529 66.5117 494.943 67.063 495.087 67.7754C495.277 68.4751 495.177 69.1662 494.787 69.8488C494.651 70.0862 494.501 70.3151 494.335 70.5355C494.17 70.756 493.958 70.9891 493.699 71.235C493.487 71.4681 493.188 71.75 492.802 72.0806L487.375 77.129L485.239 75.9072Z" fill="#E07B98"/>
</svg>
