<svg width="61" height="82" viewBox="0 0 61 82" fill="none" xmlns="http://www.w3.org/2000/svg">
<path d="M0.973056 58H0L24.2453 0.411348L25.1373 0L45.5714 58H38.679L32.3541 39.9007H8.67641L0.973056 58ZM21.7316 9.29646L9.00076 39.078H32.1108L21.7316 9.29646Z" fill="#141414"/>
<path d="M58.512 24.8571C59.5517 25.8806 60.0715 27.2003 60.0715 28.8164C60.0715 30.163 59.7705 31.5366 59.1686 32.9372L38.1573 81.4174L37.2545 81.8214L16.5715 24.8571H23.5479L40.7017 72.691L58.1837 32.9372C58.7856 31.5905 59.0866 30.19 59.0866 28.7356C59.0866 27.2811 58.6762 26.1499 57.8554 25.3419L58.512 24.8571Z" fill="#141414"/>
</svg>
