<svg width="116" height="82" viewBox="0 0 116 82" fill="none" xmlns="http://www.w3.org/2000/svg">
<g id="Group 333">
<path id="A" d="M0.973056 58H0L24.2453 0.411348L25.1373 0L45.5714 58H38.679L32.3541 39.9007H8.67641L0.973056 58ZM21.7316 9.29646L9.00076 39.078H32.1108L21.7316 9.29646Z" fill="#141414"/>
<path id="V" d="M58.512 24.8571C59.5517 25.8806 60.0715 27.2003 60.0715 28.8164C60.0715 30.163 59.7705 31.5366 59.1686 32.9372L38.1573 81.4174L37.2545 81.8214L16.5715 24.8571H23.5479L40.7017 72.691L58.1837 32.9372C58.7856 31.5905 59.0866 30.19 59.0866 28.7356C59.0866 27.2811 58.6762 26.1499 57.8554 25.3419L58.512 24.8571Z" fill="#141414"/>
<g id="irgo">
<path id="Vector" d="M108.647 53.3927C109.724 53.3927 110.714 53.5619 111.616 53.9003C112.519 54.2387 113.293 54.7258 113.939 55.3615C114.595 55.9973 115.103 56.7664 115.462 57.6688C115.821 58.5712 116 59.5608 116 60.6375C116 61.6732 115.821 62.6423 115.462 63.5447C115.103 64.4369 114.6 65.2008 113.954 65.8366C113.308 66.4724 112.534 66.9646 111.632 67.3133C110.729 67.6619 109.734 67.8363 108.647 67.8363C107.56 67.8363 106.566 67.6671 105.663 67.3287C104.771 66.98 104.002 66.4878 103.356 65.852C102.71 65.206 102.208 64.4369 101.849 63.5447C101.5 62.6423 101.326 61.6732 101.326 60.6375C101.326 59.5608 101.505 58.5764 101.864 57.6842C102.223 56.7818 102.725 56.0127 103.371 55.3769C104.018 54.7309 104.787 54.2387 105.679 53.9003C106.581 53.5619 107.571 53.3927 108.647 53.3927ZM108.647 54.9924C107.93 54.9924 107.284 55.1257 106.709 55.3923C106.135 55.6589 105.643 56.0332 105.233 56.5152C104.833 56.9971 104.525 57.5919 104.31 58.2995C104.094 58.9968 103.987 59.771 103.987 60.6222C103.987 61.422 104.094 62.1757 104.31 62.8833C104.535 63.5806 104.848 64.1805 105.248 64.683C105.658 65.1752 106.15 65.5546 106.725 65.8212C107.299 66.0879 107.94 66.2212 108.647 66.2212C109.355 66.2212 109.996 66.0879 110.57 65.8212C111.144 65.5546 111.637 65.1752 112.047 64.683C112.457 64.1805 112.77 63.5806 112.985 62.8833C113.211 62.1757 113.324 61.422 113.324 60.6222C113.324 59.7813 113.211 59.0071 112.985 58.2995C112.77 57.5919 112.457 56.9971 112.047 56.5152C111.647 56.0332 111.155 55.6589 110.57 55.3923C109.996 55.1257 109.355 54.9924 108.647 54.9924Z" fill="#141414"/>
<path id="Vector_2" d="M91.0043 54.9924C90.307 54.9924 89.6712 55.1257 89.097 55.3923C88.5227 55.6487 88.0305 56.0178 87.6203 56.4998C87.2204 56.9818 86.9076 57.5765 86.682 58.2841C86.4667 58.9814 86.359 59.7454 86.359 60.576C86.359 61.4066 86.4667 62.1552 86.682 62.8218C86.9076 63.4781 87.2204 64.0421 87.6203 64.5138C88.0305 64.9855 88.5227 65.3495 89.097 65.6059C89.6712 65.852 90.3173 65.9751 91.0351 65.9751C91.7427 65.9751 92.3836 65.8417 92.9578 65.5751C93.5321 65.3085 94.0192 64.9342 94.4191 64.4522C94.8293 63.9703 95.1472 63.3909 95.3728 62.7141C95.5984 62.0373 95.7112 61.2836 95.7112 60.453C95.7112 59.6531 95.5984 58.9199 95.3728 58.2533C95.1472 57.5765 94.8293 56.9971 94.4191 56.5152C94.0089 56.023 93.5116 55.6487 92.9271 55.3923C92.3528 55.1257 91.7119 54.9924 91.0043 54.9924ZM95.8189 53.6849C96.2803 53.7054 96.7367 53.7259 97.1879 53.7464C97.6391 53.7567 98.0954 53.7618 98.5569 53.7618C98.9568 53.7618 99.3054 53.7618 99.6028 53.7618C99.9105 53.7516 100.213 53.7464 100.51 53.7464V55.1154C99.9464 55.1154 99.5054 55.1359 99.1875 55.177C98.8799 55.2077 98.6492 55.2692 98.4953 55.3615C98.3518 55.4436 98.2646 55.5615 98.2338 55.7153C98.2031 55.8589 98.1877 56.0486 98.1877 56.2845V66.5596C98.1877 67.9952 98.0134 69.195 97.6647 70.1589C97.3263 71.1229 96.8341 71.892 96.188 72.4662C95.5523 73.0507 94.7729 73.4609 93.85 73.6968C92.9373 73.9429 91.9016 74.0659 90.7429 74.0659C89.6559 74.0659 88.6253 73.948 87.6511 73.7122C86.6769 73.4866 85.7694 73.1328 84.9285 72.6508L85.0515 69.4206C85.0721 69.4309 85.1592 69.436 85.313 69.436C85.4156 69.436 85.5335 69.436 85.6668 69.436C85.8104 69.436 85.9386 69.4309 86.0514 69.4206C86.1847 69.4206 86.3231 69.4155 86.4667 69.4052C86.559 70.0205 86.7179 70.5281 86.9435 70.928C87.1794 71.328 87.4768 71.6459 87.8357 71.8817C88.2048 72.1176 88.6304 72.2816 89.1124 72.3739C89.6046 72.4765 90.1532 72.5278 90.7582 72.5278C91.4043 72.5278 92.0196 72.4406 92.6041 72.2663C93.1988 72.1022 93.7167 71.8356 94.1576 71.4664C94.6088 71.0972 94.9678 70.6153 95.2344 70.0205C95.501 69.4257 95.6343 68.6977 95.6343 67.8363V65.006C95.0498 65.8264 94.3115 66.4519 93.4193 66.8826C92.5374 67.303 91.5376 67.5132 90.4198 67.5132C89.4046 67.5132 88.4817 67.3492 87.6511 67.021C86.8307 66.6826 86.1232 66.2109 85.5284 65.6059C84.9439 65.0009 84.4875 64.2728 84.1594 63.4217C83.8415 62.5603 83.6826 61.6066 83.6826 60.5606C83.6826 59.5044 83.8466 58.5353 84.1748 57.6534C84.5132 56.7715 84.9798 56.0178 85.5745 55.3923C86.1693 54.7565 86.882 54.2643 87.7126 53.9156C88.5432 53.567 89.461 53.3927 90.466 53.3927C91.6145 53.3927 92.6348 53.6336 93.527 54.1156C94.4191 54.5873 95.1831 55.2846 95.8189 56.2075V53.6849Z" fill="#141414"/>
<path id="Vector_3" d="M81.9752 56.6382H81.0523C80.8472 56.146 80.5908 55.8127 80.2832 55.6384C79.9756 55.4538 79.5551 55.3615 79.0219 55.3615C78.5194 55.3615 78.0579 55.4795 77.6375 55.7153C77.2171 55.9512 76.853 56.2896 76.5454 56.7305C76.2378 57.1612 75.9968 57.6842 75.8224 58.2995C75.6584 58.9045 75.5712 59.5813 75.561 60.3299C75.5507 60.3402 75.5456 60.4683 75.5456 60.7144C75.5456 60.9503 75.5404 61.2477 75.5302 61.6066C75.5302 61.9655 75.5302 62.3552 75.5302 62.7756C75.5302 63.1858 75.5302 63.5755 75.5302 63.9446C75.5302 64.3138 75.5302 64.6266 75.5302 64.8829C75.5302 65.1291 75.5302 65.2624 75.5302 65.2829C75.5302 65.4982 75.5712 65.6674 75.6532 65.7905C75.7455 65.9033 75.8942 65.9904 76.0993 66.052C76.3044 66.1032 76.5762 66.134 76.9146 66.1443C77.253 66.1443 77.6683 66.1443 78.1605 66.1443V67.5132C77.8323 67.5132 77.5145 67.5132 77.2068 67.5132C76.9094 67.503 76.5967 67.4979 76.2685 67.4979C75.9404 67.4979 75.5917 67.4979 75.2225 67.4979C74.8636 67.4876 74.4637 67.4825 74.0228 67.4825C73.6433 67.4825 73.2998 67.4876 72.9922 67.4979C72.6845 67.4979 72.3923 67.4979 72.1154 67.4979C71.8488 67.4979 71.5873 67.503 71.3309 67.5132C71.0746 67.5132 70.8079 67.5132 70.5311 67.5132V66.1443C71.1156 66.1443 71.5668 66.134 71.8847 66.1135C72.2128 66.0827 72.4538 66.0315 72.6076 65.9597C72.7614 65.8879 72.8486 65.7853 72.8691 65.652C72.8999 65.5187 72.9153 65.3495 72.9153 65.1444V55.823C72.9153 55.6487 72.8845 55.5154 72.823 55.4231C72.7717 55.3205 72.6589 55.2487 72.4846 55.2077C72.3205 55.1564 72.0846 55.1308 71.777 55.1308C71.4796 55.1206 71.0899 55.1154 70.608 55.1154V53.7464C70.7208 53.7464 70.8951 53.7516 71.131 53.7618C71.3771 53.7618 71.6181 53.7618 71.8539 53.7618H72.7614C73.1921 53.7618 73.6228 53.7516 74.0535 53.7311C74.4945 53.7105 74.9457 53.6952 75.4071 53.6849V56.4844C75.8994 55.5205 76.5813 54.7668 77.4529 54.2233C78.3348 53.6695 79.3757 53.3927 80.5755 53.3927C81.0267 53.3927 81.4932 53.4234 81.9752 53.4849V56.6382Z" fill="#141414"/>
<path id="Vector_4" d="M65.2859 47.286C65.7986 47.286 66.2037 47.4142 66.501 47.6706C66.7984 47.9167 66.9471 48.2602 66.9471 48.7011C66.9471 49.1523 66.7984 49.5113 66.501 49.7779C66.2139 50.0342 65.8089 50.1624 65.2859 50.1624C64.7731 50.1624 64.3732 50.0342 64.0861 49.7779C63.7989 49.5215 63.6554 49.1626 63.6554 48.7011C63.6554 48.2602 63.7989 47.9167 64.0861 47.6706C64.3732 47.4142 64.7731 47.286 65.2859 47.286ZM66.901 65.1136C66.901 65.3598 66.942 65.5546 67.024 65.6982C67.1061 65.8315 67.2394 65.934 67.424 66.0058C67.6085 66.0673 67.8444 66.1083 68.1315 66.1288C68.4289 66.1391 68.7878 66.1442 69.2083 66.1442V67.5132C68.9416 67.5132 68.5827 67.5132 68.1315 67.5132C67.6803 67.503 67.2291 67.4978 66.7779 67.4978C66.3267 67.4978 65.9268 67.4978 65.5781 67.4978C65.2295 67.4876 65.0244 67.4825 64.9628 67.4825C64.3783 67.4825 63.8605 67.4876 63.4093 67.4978C62.9683 67.5081 62.512 67.5132 62.0403 67.5132V66.1442C62.594 66.1442 63.0247 66.1288 63.3324 66.0981C63.64 66.0673 63.8656 66.016 64.0092 65.9443C64.163 65.8725 64.2502 65.7751 64.2707 65.652C64.3014 65.5187 64.3168 65.3495 64.3168 65.1444V55.6692C64.3168 55.5256 64.2758 55.4179 64.1938 55.3461C64.122 55.2743 63.9989 55.2231 63.8246 55.1923C63.6503 55.1513 63.4195 55.1308 63.1324 55.1308C62.8555 55.1205 62.5171 55.1154 62.1172 55.1154V53.7464C62.9888 53.7464 63.8092 53.7413 64.5783 53.731C65.3474 53.7208 66.1216 53.7003 66.901 53.6695V65.1136Z" fill="#141414"/>
</g>
</g>
</svg>
